# Blender 3.4.1
# www.blender.org
mtllib broom.mtl
o Cylinder
v 0.000000 -0.031299 -0.204601
v 0.020136 7.625952 -0.189502
v 0.194587 -0.031299 -0.063225
v 0.198774 7.586733 -0.033291
v 0.120262 -0.031299 0.165526
v 0.102713 7.498801 0.168926
v -0.120262 -0.031299 0.165526
v -0.135293 7.483676 0.137693
v -0.194587 -0.031299 -0.063225
v -0.186329 7.562260 -0.083827
v -0.362263 -0.106699 1.752961
v -0.362263 0.106699 1.752961
v -0.362263 -0.106699 -1.752961
v -0.362263 0.106699 -1.752961
v 0.362263 -0.106699 1.752961
v 0.362263 0.106699 1.752961
v 0.362263 -0.106699 -1.752961
v 0.362263 0.106699 -1.752961
v -0.000000 2.214193 -0.143426
v -0.000000 4.362821 -0.175202
v 0.167525 4.437800 -0.065627
v 0.156322 2.152861 -0.039637
v 0.103536 4.476413 0.134642
v 0.096612 2.116861 0.145051
v -0.103536 4.425297 0.148840
v -0.096612 2.155944 0.155404
v -0.167525 4.355093 -0.042654
v -0.156322 2.216099 -0.022885
v -0.484502 -0.700249 1.832289
v -0.320143 -0.004167 1.692900
v -0.542796 -0.732523 -1.739016
v -0.320143 -0.004167 -1.665554
v 0.497671 -0.590383 1.734879
v 0.320143 -0.004167 1.692900
v 0.497531 -0.669579 -1.782559
v 0.320143 -0.004167 -1.665554
v -0.462669 -0.644453 -0.583263
v -0.522500 -0.634658 0.635758
v -0.320143 -0.004167 0.573415
v -0.320143 -0.004167 -0.546069
v 0.570570 -0.684986 0.613349
v 0.461258 -0.705303 -0.616506
v 0.320143 -0.004167 -0.546069
v 0.320143 -0.004167 0.573415
v -0.022632 -0.701052 -1.760788
v 0.000000 -0.004167 -1.665554
v 0.006584 -0.645316 1.783584
v 0.000000 -0.004167 1.692900
v 0.000000 -0.004167 -0.546069
v 0.000000 -0.004167 0.573415
v -0.000705 -0.535135 -0.599884
v 0.024035 -0.520079 0.624553
vn 0.6092 -0.0027 -0.7930
vn 0.9296 -0.0086 0.3686
vn -0.0377 -0.0040 0.9993
vn -0.1055 0.9293 0.3540
vn -0.9634 -0.0055 0.2682
vn -0.5363 -0.0071 -0.8440
vn -0.0000 -1.0000 -0.0000
vn -1.0000 -0.0000 -0.0000
vn -0.0000 -0.0000 -1.0000
vn 1.0000 -0.0000 -0.0000
vn -0.0000 -0.0000 1.0000
vn -0.0000 1.0000 -0.0000
vn -0.5979 0.0232 -0.8012
vn -0.6156 -0.0111 -0.7880
vn -0.9493 0.0111 0.3142
vn -0.9483 -0.0020 0.3173
vn 0.0245 0.0071 0.9997
vn 0.0611 0.0037 0.9981
vn 0.9508 0.0134 0.3094
vn 0.9521 -0.0013 0.3059
vn 0.5750 0.0206 -0.8179
vn 0.5505 -0.0123 -0.8348
vn -0.9664 0.2559 0.0241
vn -0.0312 0.1504 -0.9881
vn 0.9469 0.3210 0.0173
vn 0.0481 0.1639 0.9853
vn -0.1064 -0.9942 -0.0176
vn -0.1375 -0.9890 0.0545
vn -0.3144 -0.9488 0.0308
vn 0.9743 0.2245 0.0190
vn 0.9608 0.2733 -0.0471
vn -0.9627 0.2697 0.0234
vn -0.9649 0.2614 -0.0258
vn 0.2171 -0.9761 0.0130
vn 0.1451 -0.9842 0.1015
vn 0.1561 -0.9844 -0.0811
vn 0.0518 0.1150 0.9920
vn -0.0303 0.1226 -0.9920
vt 0.750000 0.490000
vt 0.000000 0.500000
vt 1.000000 0.500000
vt 1.000000 1.000000
vt 0.250000 0.490000
vt 0.000000 1.000000
vt 0.978254 0.324164
vt 0.800000 0.500000
vt 0.800000 1.000000
vt 0.478254 0.324164
vt 0.891068 0.055836
vt 0.600000 0.500000
vt 0.600000 1.000000
vt 0.391068 0.055836
vt 0.608932 0.055836
vt 0.400000 0.500000
vt 0.108932 0.055836
vt 0.400000 1.000000
vt 0.521746 0.324164
vt 0.200000 0.500000
vt 0.021746 0.324164
vt 0.200000 1.000000
vt 0.375000 0.000000
vt 0.375000 1.000000
vt 0.125000 0.750000
vt 0.625000 0.000000
vt 0.625000 1.000000
vt 0.875000 0.750000
vt 0.375000 0.250000
vt 0.125000 0.500000
vt 0.625000 0.250000
vt 0.875000 0.500000
vt 0.375000 0.750000
vt 0.625000 0.750000
vt 0.375000 0.500000
vt 0.625000 0.500000
vt 0.000000 0.666667
vt 1.000000 0.666667
vt 0.000000 0.833333
vt 1.000000 0.833333
vt 0.800000 0.833333
vt 0.800000 0.666667
vt 0.600000 0.833333
vt 0.600000 0.666667
vt 0.400000 0.833333
vt 0.400000 0.666667
vt 0.200000 0.833333
vt 0.200000 0.666667
vt 0.375000 1.000000
vt 0.375000 0.000000
vt 0.125000 0.750000
vt 0.625000 1.000000
vt 0.875000 0.750000
vt 0.625000 0.000000
vt 0.125000 0.500000
vt 0.375000 0.250000
vt 0.875000 0.500000
vt 0.625000 0.250000
vt 0.375000 0.750000
vt 0.625000 0.750000
vt 0.375000 0.500000
vt 0.625000 0.500000
vt 0.375000 0.166667
vt 0.125000 0.583333
vt 0.375000 0.083333
vt 0.125000 0.666667
vt 0.875000 0.666667
vt 0.625000 0.083333
vt 0.875000 0.583333
vt 0.625000 0.166667
vt 0.375000 0.666667
vt 0.375000 0.583333
vt 0.625000 0.583333
vt 0.625000 0.666667
vt 0.250000 0.500000
vt 0.375000 0.375000
vt 0.750000 0.500000
vt 0.625000 0.375000
vt 0.250000 0.750000
vt 0.375000 0.875000
vt 0.750000 0.750000
vt 0.625000 0.875000
vt 0.750000 0.583333
vt 0.750000 0.666667
vt 0.250000 0.583333
vt 0.250000 0.666667
s 0
usemtl Material.002
f 20/40/1 2/4/1 4/9/1 21/41/1
f 21/41/2 4/9/2 6/13/2 23/43/2
f 23/43/3 6/13/3 8/18/3 25/45/3
f 4/10/4 2/5/4 10/21/4 8/17/4 6/14/4
f 25/45/5 8/18/5 10/22/5 27/47/5
f 27/47/6 10/22/6 2/6/6 20/39/6
f 1/1/7 3/7/7 5/11/7 7/15/7 9/19/7
f 11/23/8 12/26/8 14/31/8 13/29/8
f 13/29/9 14/31/9 18/36/9 17/35/9
f 17/35/10 18/36/10 16/34/10 15/33/10
f 15/33/11 16/34/11 12/27/11 11/24/11
f 13/30/7 17/35/7 15/33/7 11/25/7
f 18/36/12 14/32/12 12/28/12 16/34/12
f 9/20/13 28/48/13 19/37/13 1/2/13
f 28/48/14 27/47/14 20/39/14 19/37/14
f 7/16/15 26/46/15 28/48/15 9/20/15
f 26/46/16 25/45/16 27/47/16 28/48/16
f 5/12/17 24/44/17 26/46/17 7/16/17
f 24/44/18 23/43/18 25/45/18 26/46/18
f 3/8/19 22/42/19 24/44/19 5/12/19
f 22/42/20 21/41/20 23/43/20 24/44/20
f 1/3/21 19/38/21 22/42/21 3/8/21
f 19/38/22 20/40/22 21/41/22 22/42/22
usemtl Material.001
f 37/63/23 40/70/23 32/58/23 31/56/23
f 45/76/24 46/78/24 36/62/24 35/61/24
f 41/71/25 44/74/25 34/60/25 33/59/25
f 47/80/26 48/82/26 30/52/26 29/49/26
f 52/86/27 41/71/27 33/59/27 47/79/27
f 50/84/12 39/67/12 30/53/12 48/81/12
f 46/77/12 32/57/12 40/69/12 49/83/12
f 49/83/12 40/69/12 39/67/12 50/84/12
f 45/75/28 35/61/28 42/72/28 51/85/28
f 51/85/29 42/72/29 41/71/29 52/86/29
f 35/61/30 36/62/30 43/73/30 42/72/30
f 42/72/31 43/73/31 44/74/31 41/71/31
f 29/50/32 30/54/32 39/68/32 38/65/32
f 38/65/33 39/68/33 40/70/33 37/63/33
f 37/64/34 51/85/34 52/86/34 38/66/34
f 31/55/35 45/75/35 51/85/35 37/64/35
f 43/73/12 49/83/12 50/84/12 44/74/12
f 36/62/12 46/77/12 49/83/12 43/73/12
f 44/74/12 50/84/12 48/81/12 34/60/12
f 38/66/36 52/86/36 47/79/36 29/51/36
f 33/59/37 34/60/37 48/82/37 47/80/37
f 31/56/38 32/58/38 46/78/38 45/76/38
